<?xml version="1.0" encoding="utf-8"?>
<!-- Generator: Adobe Illustrator 22.1.0, SVG Export Plug-In . SVG Version: 6.00 Build 0)  -->
<svg version="1.1" id="Layer_1" xmlns="http://www.w3.org/2000/svg" xmlns:xlink="http://www.w3.org/1999/xlink" x="0px" y="0px"
	 viewBox="0 0 149.2 172.2" style="enable-background:new 0 0 149.2 172.2;" xml:space="preserve">
<style type="text/css">
	.st0{fill:#585858;}
	.st1{fill:#FFFFFF;}
</style>
<polygon class="st0" points="149.2,129.2 74.6,172.2 0,129.2 0,43.1 74.6,0 149.2,43.1 "/>
<g>
	<path class="st1" d="M74.3,148.3c-0.9,0-1.7-0.2-2.5-0.7L22.1,119c-1.5-0.9-2.5-2.5-2.5-4.3V57.4c0-1.8,1-3.4,2.5-4.3l49.6-28.7
		c1.5-0.9,3.5-0.9,5,0L126.4,53c1.5,0.9,2.5,2.5,2.5,4.3v57.3c0,1.8-1,3.4-2.5,4.3l-49.6,28.7C76,148.1,75.1,148.3,74.3,148.3z
		 M29.6,111.8l44.6,25.8l44.6-25.8V60.3L74.3,34.5L29.6,60.3V111.8z M123.9,114.7L123.9,114.7L123.9,114.7z"/>
</g>
</svg>
